{"title":"Allah Maaf Kare (Desi Boyz) - Full Song - H.264 - 720p DVDRip ~~","uid":6950586,"size":57867154,"categoryP":"video","categoryS":"music_videos","magnet":"?xt=urn:btih:79e0e83ed7632163547d7f752fa9fe9a8e15d264&amp;dn=Allah+Maaf+Kare+%28Desi+Boyz%29+-+Full+Song+-+H.264+-+720p+DVDRip+%7E%7E&amp;tr=udp%3A%2F%2Ftracker.openbittorrent.com%3A80&amp;tr=udp%3A%2F%2Fopen.demonii.com%3A1337&amp;tr=udp%3A%2F%2Ftracker.coppersurfer.tk%3A6969&amp;tr=udp%3A%2F%2Fexodus.desync.com%3A6969","seeders":1,"leechers":0,"uploader":"AbhiHKRG","files":6,"time":1326387962,"description":"COVER ::\n &lt;a href=&quot;\nhttp://i.minus.com/ibvpoB3LFjabad.png&quot; rel=&quot;nofollow&quot; target=&quot;_NEW&quot;&gt;\nhttp://i.minus.com/ibvpoB3LFjabad.png&lt;/a&gt;\n\n\nSCREEN ::\n &lt;a href=&quot;\nhttp://i.minus.com/ikRu1v7odvzMd.png&quot; rel=&quot;nofollow&quot; target=&quot;_NEW&quot;&gt;\nhttp://i.minus.com/ikRu1v7odvzMd.png&lt;/a&gt;\n &lt;a href=&quot;\nhttp://i.minus.com/iYzWYNrKHhsAi.png&quot; rel=&quot;nofollow&quot; target=&quot;_NEW&quot;&gt;\nhttp://i.minus.com/iYzWYNrKHhsAi.png&lt;/a&gt;\n &lt;a href=&quot;\nhttp://i.minus.com/iMCbrh4fv5Vaf.png&quot; rel=&quot;nofollow&quot; target=&quot;_NEW&quot;&gt;\nhttp://i.minus.com/iMCbrh4fv5Vaf.png&lt;/a&gt;\n &lt;a href=&quot;\nhttp://i.minus.com/iCDc3t9ez8zBc.png&quot; rel=&quot;nofollow&quot; target=&quot;_NEW&quot;&gt;\nhttp://i.minus.com/iCDc3t9ez8zBc.png&lt;/a&gt;\n &lt;a href=&quot;\nhttp://i.minus.com/ip94ovLLANOY5.png&quot; rel=&quot;nofollow&quot; target=&quot;_NEW&quot;&gt;\nhttp://i.minus.com/ip94ovLLANOY5.png&lt;/a&gt;\n &lt;a href=&quot;\nhttp://i.minus.com/itpnC2jJjFybP.png&quot; rel=&quot;nofollow&quot; target=&quot;_NEW&quot;&gt;\nhttp://i.minus.com/itpnC2jJjFybP.png&lt;/a&gt;\n &lt;a href=&quot;\nhttp://i.minus.com/iTLL19fAiyrnH.png&quot; rel=&quot;nofollow&quot; target=&quot;_NEW&quot;&gt;\nhttp://i.minus.com/iTLL19fAiyrnH.png&lt;/a&gt;\n &lt;a href=&quot;\nhttp://i.minus.com/ibvrNirnUv5JZg.png&quot; rel=&quot;nofollow&quot; target=&quot;_NEW&quot;&gt;\nhttp://i.minus.com/ibvrNirnUv5JZg.png&lt;/a&gt;\n &lt;a href=&quot;\nhttp://i.minus.com/ibgAhIcFMjaEFP.png&quot; rel=&quot;nofollow&quot; target=&quot;_NEW&quot;&gt;\nhttp://i.minus.com/ibgAhIcFMjaEFP.png&lt;/a&gt;\n &lt;a href=&quot;\nhttp://i.minus.com/ibr8cBtJ94x0DD.png&quot; rel=&quot;nofollow&quot; target=&quot;_NEW&quot;&gt;\nhttp://i.minus.com/ibr8cBtJ94x0DD.png&lt;/a&gt;\n\n\n\nGeneral ::\nFormat                           : AVI\nFormat/Info                      : Audio Video Interleave\nFile size                        : 55.2 MiB\nDuration                         : 3mn 20s\nOverall bit rate                 : 2 307 Kbps\n\n\nVideo Info ::\nID                               : 0\nFormat                           : AVC\nFormat/Info                      : Advanced Video Codec\nFormat profile                   : &lt;a class=&quot;__cf_email__&quot; href=&quot;/cdn-cgi/l/email-protection&quot; data-cfemail=&quot;064e6f616e464a332837&quot;&gt;[email&amp;#160;protected]&lt;/a&gt;&lt;script cf-hash='f9e31' type=&quot;text/javascript&quot;&gt;\n/* &lt;![CDATA[ */!function(){try{var t=&quot;currentScript&quot;in document?document.currentScript:function(){for(var t=document.getElementsByTagName(&quot;script&quot;),e=t.length;e--;)if(t[e].getAttribute(&quot;cf-hash&quot;))return t[e]}();if(t&amp;&amp;t.previousSibling){var e,r,n,i,c=t.previousSibling,a=c.getAttribute(&quot;data-cfemail&quot;);if(a){for(e=&quot;&quot;,r=parseInt(a.substr(0,2),16),n=2;a.length-n;n+=2)i=parseInt(a.substr(n,2),16)^r,e+=String.fromCharCode(i);e=document.createTextNode(e),c.parentNode.replaceChild(e,c)}}}catch(u){}}();/* ]]&gt; */&lt;/script&gt;\nFormat settings, CABAC           : Yes\nFormat settings, ReFrames        : 2 frames\nCodec ID                         : H264\nDuration                         : 10s 0ms\nBit rate                         : 1 975 Kbps\nWidth                            : 1 280 pixels\nHeight                           : 544 pixels\nDisplay aspect ratio             : 2.35:1\nFrame rate                       : 30.000 fps\nColor space                      : YUV\nChroma subsampling               : 4:2:0\nBit depth                        : 8 bits\nScan type                        : Progressive\nBits/(Pixel*Frame)               : 0.095\nStream size                      : 47.2 MiB (86%)\n\n\nAudio Info ::\nID                               : 1\nFormat                           : MPEG Audio\nFormat version                   : Version 1\nFormat profile                   : Layer 3\nCodec ID                         : 55\nCodec ID/Hint                    : MP3\nDuration                         : 3mn 20s\nBit rate mode                    : Constant\nBit rate                         : 320 Kbps\nChannel(s)                       : 2 channels\nSampling rate                    : 44.1 KHz\nCompression mode                 : Lossy\nStream size                      : 7.65 MiB (14%)","torrent":{"xt":"urn:btih:79e0e83ed7632163547d7f752fa9fe9a8e15d264","amp;dn":"Allah+Maaf+Kare+%28Desi+Boyz%29+-+Full+Song+-+H.264+-+720p+DVDRip+%7E%7E","amp;tr":["udp%3A%2F%2Ftracker.openbittorrent.com%3A80","udp%3A%2F%2Fopen.demonii.com%3A1337","udp%3A%2F%2Ftracker.coppersurfer.tk%3A6969","udp%3A%2F%2Fexodus.desync.com%3A6969"],"infoHash":"79e0e83ed7632163547d7f752fa9fe9a8e15d264","infoHashBuffer":{"type":"Buffer","data":[121,224,232,62,215,99,33,99,84,125,127,117,47,169,254,154,142,21,210,100]},"announce":[],"urlList":[]}}